<svg xmlns="http://www.w3.org/2000/svg" viewBox="0 0 380.65 261.5"><defs><style>.cls-1{fill:#f5f5f5;}.cls-2{fill:#fff;}</style></defs><rect class="cls-1" x="175.09" y="168.06" width="28.03" height="28.03"/><polygon class="cls-1" points="259.18 168.06 268.53 168.06 268.53 177.41 277.87 177.41 277.87 168.06 287.21 168.06 287.21 158.72 259.18 158.72 259.18 168.06"/><rect class="cls-1" x="333.93" y="168.06" width="28.03" height="28.03"/><rect class="cls-1" x="203.12" y="140.03" width="18.69" height="18.69"/><rect class="cls-1" x="305.9" y="140.03" width="18.69" height="18.69"/><polygon class="cls-2" points="193.97 74.63 212.28 74.63 212.28 65.29 203.12 65.29 203.12 55.94 175.09 55.94 175.09 65.29 193.97 65.29 193.97 74.63"/><polygon class="cls-2" points="221.62 83.97 221.62 74.63 212.28 74.63 212.28 93.32 221.62 93.32 230.96 93.32 230.96 83.97 221.62 83.97"/><path class="cls-2" d="M384.27,182V125.73H365.59V182h9.34v74.37h-9.34v9.34h-9.34v9.34H337.94v9.34H206.75v-9.34h-9.34v-9.34h-9.34v-9.34h-9.34V181.67h9.34V125.61H169.38v56.06H160v74.75h9.34v9.34H115.32V88.36H300.85V97.7h8.86v55.94H243.93V163H310v-9.23H328.4V135.07h18.31v-9.34h18.88v-9.34h-28v9.34H328.4v-28h-9.24V88.36H310V79h-9V69.67H291.7V60.33H96.63v28H13V97.7h9.34V107h9.34V303.14H22.31v9.34H13v9.34H134V312.7h9.34v-9.57h9.34v-9.34h35.37v9.34h9.34v9.34h46.72V293.79H281.5v9.34h9.72v9.34h46.72V293.79h9.34v-9.34h18.31v-9.34h9.34v-9.34h18.69V182ZM273,69.67h9.34V79H273Zm-27.74,0h9.06V79h-9.06Zm-28,0h9.34V79h-9.34Zm-27.74,0h9.06V79h-9.06Zm-27.74,0h9.06V79h-9.06Zm-27.74,0h9.06V79H134Zm-46.57,28h9.2V107h-9.2Zm-27.74,0h9.06V107H59.69Zm9.06,214.78H59.69v-9.34h9.06Zm9.34-18.69H50.34V116.39H96.63V293.79H78.09ZM96.7,312.48H87.43v-9.34H96.7Zm28,0h-9.27v-9.34h9.27Zm18.69-28H134v-9.34h9.34Zm91.43,18.69h-28v-9.34h28Zm93.81,0h-28v-9.34h28Z" transform="translate(-12.97 -60.33)"/><polygon class="cls-2" points="305.9 186.75 296.56 186.75 296.56 196.09 287.21 196.09 277.87 196.09 231.15 196.09 231.15 186.75 221.81 186.75 221.81 177.41 212.47 177.41 212.47 196.09 221.81 196.09 221.81 205.44 231.15 205.44 277.87 205.44 287.21 205.44 296.56 205.44 305.9 205.44 305.9 196.09 315.24 196.09 315.24 177.41 305.9 177.41 305.9 186.75"/><polygon class="cls-2" points="231.15 158.72 231.15 140.03 221.81 140.03 221.81 158.72 203.12 158.72 203.12 168.06 231.15 168.06 231.15 158.72"/><polygon class="cls-2" points="324.59 158.72 305.9 158.72 305.9 168.06 333.93 168.06 333.93 158.72 333.93 140.03 324.59 140.03 324.59 158.72"/></svg>
